<svg xmlns="http://www.w3.org/2000/svg" viewBox="-0.000976562 -176.994 509.029 834.521" width="100%" height="100%" transform="scale(1 -1)">
  <path fill="currentColor" d="M58.6836 623.086h189.86c40.1807 0 78.835 -1.02734 117.906 -21.1484c58.8604 -30.3125 89.2275 -91.2852 89.2275 -154.3c0 -63.1689 -30.3203 -122.847 -87.9414 -152.139c-37.8447 -19.2383 -75.1992 -20.2021 -114.015 -20.2021v0h-122.546v-275.297h-72.4922 v623.086zM131.176 557.498l-0.862305 -220.928h125.997c24.5664 0 48.3223 0.584961 72.3467 12.7402c36.0977 18.2637 55.3799 55.3887 55.3799 95.123c0 40.5596 -20.1709 80.2021 -59.0146 99.6875c-25.3975 12.7402 -50.4463 13.377 -76.4785 13.377h-117.368z" />
</svg>