<svg xmlns="http://www.w3.org/2000/svg" viewBox="0 3.006 509.029 834.521" width="100%" height="100%" transform="scale(1 -1)">
  <path fill="currentColor" d="M373.679 390.076v66.4512h68.1777v-623.086h-71.6299v239.914c-28.5664 -50.8691 -81.9609 -83.415 -140.142 -83.415c-100.879 0 -187.801 94.7031 -187.801 242.757c0 155.257 98.1309 235.969 198.22 235.969c101.363 0 133.175 -78.9199 133.175 -78.5898z M243.322 409.954c-61.2949 0 -128.646 -47.7734 -128.646 -166.955c0 -129.084 66.2559 -189.674 131.424 -189.674c47.6367 0 94.7295 32.1689 112.261 86.6221c7.45605 23.1572 9.53125 48.8018 9.53125 82.958c0 55.2373 -2.16309 84 -11.1719 109.223 c-20.0068 56.0244 -72.6084 77.8262 -113.397 77.8262z" />
</svg>